<svg width="30" height="30" viewBox="0 0 30 30" fill="none" xmlns="http://www.w3.org/2000/svg">
<path d="M13.7784 7.60889C13.4688 7.60889 13.2175 7.86017 13.2175 8.16977V9.50577L11.7862 8.79008C11.5092 8.65211 11.1727 8.76426 11.0335 9.04137C10.8944 9.31842 11.0077 9.65494 11.2848 9.79407L13.2187 10.761V14.3393H10.761L9.79407 12.4054C9.65499 12.1284 9.31847 12.0173 9.04137 12.1541C8.76431 12.2932 8.6521 12.6297 8.79008 12.9069L9.50577 14.3382H8.16977C7.86017 14.3382 7.60889 14.5895 7.60889 14.8991C7.60889 15.2087 7.86017 15.46 8.16977 15.46H9.50577L8.79008 16.8913C8.651 17.1683 8.76426 17.5049 9.04137 17.644C9.12213 17.6844 9.20737 17.7035 9.2915 17.7035C9.49788 17.7035 9.69532 17.5901 9.79402 17.3939L10.7609 15.46H13.2175V19.0394L11.2837 20.0064C11.0066 20.1454 10.8944 20.482 11.0324 20.7591C11.1311 20.9554 11.3285 21.0687 11.5349 21.0687C11.619 21.0687 11.7043 21.0496 11.785 21.0092L13.2163 20.2935V21.6295C13.2163 21.9391 13.4676 22.1904 13.7772 22.1904C14.0868 22.1904 14.3381 21.9391 14.3381 21.6295V8.16862C14.3393 7.86012 14.088 7.60889 13.7784 7.60889Z" fill="#6B6B6B"/>
<path d="M16.0213 12.0951C17.2631 12.0951 17.8711 11.689 18.3602 11.3626C18.7101 11.1281 18.9412 10.9733 19.3866 10.9733C20.2884 10.9733 20.6833 11.2369 21.1017 11.5174C21.5066 11.7877 21.9666 12.0951 22.7518 12.0951C23.0614 12.0951 23.3127 11.8438 23.3127 11.5342C23.3127 11.2246 23.0614 10.9733 22.7518 10.9733C22.3065 10.9733 22.0754 10.8185 21.7254 10.5841C21.2363 10.2577 20.6283 9.85156 19.3866 9.85156C18.6014 9.85156 18.1414 10.1589 17.7365 10.4293C17.3181 10.7097 16.9232 10.9733 16.0213 10.9733C15.7117 10.9733 15.4604 11.2246 15.4604 11.5342C15.4604 11.8438 15.7117 12.0951 16.0213 12.0951Z" fill="#6B6B6B"/>
<path d="M22.7518 17.7043C22.3065 17.7043 22.0754 17.5495 21.7254 17.315C21.2363 16.9886 20.6283 16.5825 19.3866 16.5825C18.6014 16.5825 18.1414 16.8899 17.7365 17.1602C17.3181 17.4407 16.9232 17.7043 16.0213 17.7043C15.7117 17.7043 15.4604 17.9556 15.4604 18.2652C15.4604 18.5748 15.7117 18.826 16.0213 18.826C17.2631 18.826 17.8711 18.4199 18.3602 18.0935C18.7101 17.859 18.9412 17.7042 19.3866 17.7042C20.2884 17.7042 20.6833 17.9678 21.1017 18.2483C21.5066 18.5186 21.9666 18.826 22.7518 18.826C23.0614 18.826 23.3127 18.5747 23.3127 18.2651C23.3127 17.9555 23.0614 17.7043 22.7518 17.7043Z" fill="#6B6B6B"/>
<path d="M22.7518 14.3396C22.3065 14.3396 22.0754 14.1848 21.7254 13.9503C21.2363 13.6239 20.6283 13.2178 19.3866 13.2178C18.6014 13.2178 18.1414 13.5251 17.7365 13.7955C17.3181 14.0759 16.9232 14.3396 16.0213 14.3396C15.7117 14.3396 15.4604 14.5908 15.4604 14.9004C15.4604 15.21 15.7117 15.4613 16.0213 15.4613C17.2631 15.4613 17.8711 15.0552 18.3602 14.7288C18.7101 14.4943 18.9412 14.3395 19.3866 14.3395C20.2884 14.3395 20.6833 14.6031 21.1017 14.8836C21.5066 15.1539 21.9666 15.4613 22.7518 15.4613C23.0614 15.4613 23.3127 15.21 23.3127 14.9004C23.3127 14.5908 23.0614 14.3396 22.7518 14.3396Z" fill="#6B6B6B"/>
<path d="M14.9 2C7.78708 2 2 7.78708 2 14.9C2 22.0129 7.78708 27.8 14.9 27.8C22.0129 27.8 27.8 22.0129 27.8 14.9C27.8 7.78708 22.013 2 14.9 2ZM14.9 26.6783C8.40512 26.6783 3.12172 21.3949 3.12172 14.9C3.12172 8.40512 8.40512 3.12172 14.9 3.12172C21.3949 3.12172 26.6783 8.40512 26.6783 14.9C26.6783 21.3949 21.3949 26.6783 14.9 26.6783Z" fill="#6B6B6B"/>
</svg>
