<svg width="30" height="30" viewBox="0 0 30 30" fill="none" xmlns="http://www.w3.org/2000/svg">
<path d="M7.6875 13.9375C7.6875 18.2344 11.2031 21.75 15.5 21.75C19.7969 21.75 23.3125 18.2344 23.3125 13.9375H7.6875Z" stroke="#6B6B6B" stroke-width="1.5" stroke-miterlimit="10" stroke-linecap="round" stroke-linejoin="round"/>
<path d="M6.125 13.9375H24.875" stroke="#6B6B6B" stroke-width="1.5" stroke-miterlimit="10" stroke-linecap="round" stroke-linejoin="round"/>
<path d="M18.625 19.4062L22.5312 27.2188" stroke="#6B6B6B" stroke-width="1.5" stroke-miterlimit="10" stroke-linecap="round" stroke-linejoin="round"/>
<path d="M8.46875 27.2188L12.375 19.4062" stroke="#6B6B6B" stroke-width="1.5" stroke-miterlimit="10" stroke-linecap="round" stroke-linejoin="round"/>
<path d="M10.0312 11.5938H13.9375" stroke="#6B6B6B" stroke-width="1.5" stroke-miterlimit="10" stroke-linecap="round" stroke-linejoin="round"/>
<path d="M17.0625 11.5938H20.9688" stroke="#6B6B6B" stroke-width="1.5" stroke-miterlimit="10" stroke-linecap="round" stroke-linejoin="round"/>
<path d="M12.375 3.78125L12.8438 4.25C13.4687 4.875 13.4687 5.8125 12.8438 6.4375C12.5313 6.75 12.375 7.14063 12.375 7.53125V8.46875" stroke="#6B6B6B" stroke-width="1.5" stroke-miterlimit="10" stroke-linecap="round" stroke-linejoin="round"/>
<path d="M15.5 3.78125L15.9688 4.25C16.5938 4.875 16.5938 5.8125 15.9688 6.4375C15.6563 6.75 15.5 7.14063 15.5 7.53125V8.46875" stroke="#6B6B6B" stroke-width="1.5" stroke-miterlimit="10" stroke-linecap="round" stroke-linejoin="round"/>
<path d="M18.625 3.78125L19.0938 4.25C19.7187 4.875 19.7187 5.8125 19.0938 6.4375C18.7813 6.75 18.625 7.14063 18.625 7.53125V8.46875" stroke="#6B6B6B" stroke-width="1.5" stroke-miterlimit="10" stroke-linecap="round" stroke-linejoin="round"/>
</svg>
