<svg width="24" height="24" viewBox="0 0 24 24" fill="none" xmlns="http://www.w3.org/2000/svg">
<path d="M7.25697 18.6023H7.66399V17.1445H10.1868V18.6023H10.5945V17.1445H13.2364V18.6023H13.6448V17.1445H16.4556V18.6023H16.8626V17.1445H19.2001V16.7382H16.8626V14.097H19.2001V13.6893H16.8626V11.2821H19.2001V10.8758H16.8626V9.24976H16.4556V10.8758H13.6448V9.24976H13.2364V10.8758H10.5945V9.24976H10.1868V10.8758H7.66331V9.24976H7.25697V10.8758H4.56313V11.2821H7.25697V13.6893H4.56313V14.097H7.25697V16.7382H4.56313V17.1445H7.25697V18.6023ZM10.5938 16.7382V14.097H13.2357V16.7382H10.5938ZM16.4556 16.7382H13.6448V14.097H16.4556V16.7382ZM16.4556 11.2821V13.6893H13.6448V11.2821C13.6448 11.2828 16.4556 11.2828 16.4556 11.2821ZM13.2364 11.2821V13.6893H10.5945V11.2821C10.5945 11.2828 13.2364 11.2828 13.2364 11.2821ZM7.66331 11.2821H10.1861V13.6893H7.66331V11.2821ZM7.66331 14.097H10.1861V16.7382H7.66331V14.097Z" fill="#6B6B6B"/>
<path d="M21.9795 3.3374L19.155 3.34014L18.7425 3.34151V5.0161C18.7425 5.46279 18.3772 5.82808 17.9298 5.82808H16.9803C16.5316 5.82808 16.1677 5.46348 16.1677 5.0161V3.34424L15.0848 3.34561V5.0161C15.0848 5.46279 14.7188 5.82808 14.2701 5.82808H13.3206C12.8725 5.82808 12.5079 5.46348 12.5079 5.0161V3.3463L11.3573 3.34903V5.01678C11.3573 5.46348 10.992 5.82877 10.544 5.82877H9.5938C9.14711 5.82877 8.78113 5.46416 8.78113 5.01678V3.35177H7.59633V5.01678C7.59633 5.46348 7.23173 5.82877 6.78366 5.82877H5.83418C5.38544 5.82877 5.02083 5.46416 5.02083 5.01678V3.35519L2 3.35792V21.2483H3.4297H20.5724L22 21.2442L21.9795 3.3374ZM20.5724 19.8247H3.4297V8.39469H20.5724V19.8247Z" fill="#6B6B6B"/>
<path d="M5.83422 5.25204H6.7837C6.89521 5.25204 6.98619 5.16106 6.98619 5.04888V2.20317C6.98619 2.0903 6.89521 2 6.7837 2H5.83422C5.72135 2 5.63037 2.0903 5.63037 2.20317V5.04888C5.63037 5.16106 5.72135 5.25204 5.83422 5.25204Z" fill="#6B6B6B"/>
<path d="M9.59388 5.25204H10.544C10.6562 5.25204 10.7472 5.16106 10.7472 5.04888V2.20317C10.7465 2.0903 10.6556 2 10.5434 2H9.5932C9.4817 2 9.39072 2.0903 9.39072 2.20317V5.04888C9.3914 5.16106 9.48238 5.25204 9.59388 5.25204Z" fill="#6B6B6B"/>
<path d="M13.3205 5.25204H14.27C14.3836 5.25204 14.4745 5.16106 14.4745 5.04888V2.20317C14.4738 2.0903 14.3836 2 14.27 2H13.3205C13.2083 2 13.1173 2.0903 13.1173 2.20317V5.04888C13.1173 5.16106 13.2083 5.25204 13.3205 5.25204Z" fill="#6B6B6B"/>
<path d="M16.9802 5.25204H17.9297C18.0419 5.25204 18.1321 5.16106 18.1321 5.04888V2.20317C18.1321 2.0903 18.0419 2 17.9297 2H16.9802C16.868 2 16.777 2.0903 16.777 2.20317V5.04888C16.7777 5.16106 16.868 5.25204 16.9802 5.25204Z" fill="#6B6B6B"/>
</svg>
