<svg width="30" height="30" viewBox="0 0 30 30" fill="none" xmlns="http://www.w3.org/2000/svg">
<path d="M27.4998 26.25H2.49985V23.75H3.74985V5C3.74985 4.66848 3.88154 4.35054 4.11596 4.11612C4.35038 3.8817 4.66833 3.75 4.99985 3.75H22.4998C22.8314 3.75 23.1493 3.8817 23.3837 4.11612C23.6182 4.35054 23.7498 4.66848 23.7498 5V11.25H26.2498V23.75H27.4998V26.25ZM21.2498 23.75H23.7498V13.75H16.2498V23.75H18.7498V16.25H21.2498V23.75ZM21.2498 11.25V6.25H6.24985V23.75H13.7498V11.25H21.2498ZM8.74985 13.75H11.2498V16.25H8.74985V13.75ZM8.74985 18.75H11.2498V21.25H8.74985V18.75ZM8.74985 8.75H11.2498V11.25H8.74985V8.75Z" fill="#B6B6B6"/>
</svg>
