<svg width="30" height="30" viewBox="0 0 30 30" fill="none" xmlns="http://www.w3.org/2000/svg">
<path d="M26.7166 12.7472H26.1447V9.83113H23.141V7.19971H19.1057V12.7472H11.4928L11.4946 7.19971H7.45881V9.83113H4.45557V12.7472H3.88314C3.06529 12.7472 2.40015 13.4129 2.40015 14.2307V15.2945C2.40015 16.1123 3.06529 16.778 3.88314 16.778H4.45557V19.6885L7.45887 19.6938V22.3255H11.4896L11.4914 16.7779H19.1056V22.3255H23.1409V19.6946H26.1447V16.7779H26.7166C27.5345 16.7779 28.2001 16.1123 28.2001 15.2944V14.2307C28.2001 13.4129 27.5345 12.7472 26.7166 12.7472ZM4.45557 15.746H3.88314C3.63421 15.746 3.43213 15.5434 3.43213 15.2945V14.2307C3.43213 13.9818 3.63421 13.7793 3.88314 13.7793H4.45557V15.746ZM7.45887 18.6616L5.48761 18.6585V16.7779V12.7472V10.8631H7.45887V18.6616ZM10.4601 14.7626L10.4566 16.778H10.4593L10.4576 21.2935H8.49085V19.6956V9.83113V8.23174H10.4626L10.4601 14.7626ZM19.1056 15.746H11.4918L11.4921 14.7626L11.4936 13.7793H19.1056V15.746ZM22.1089 9.83113V19.6946V21.2935H20.1377V16.778V12.7473V8.23185H22.1089V9.83113ZM25.1127 12.7472V16.7779V18.6626H23.1409V10.8631H25.1127V12.7472ZM27.1681 15.2945C27.1681 15.5434 26.9656 15.746 26.7166 15.746H26.1447V13.7792H26.7166C26.9656 13.7792 27.1681 13.9818 27.1681 14.2307V15.2945Z" fill="#6B6B6B"/>
</svg>
