<svg width="30" height="30" viewBox="0 0 30 30" fill="none" xmlns="http://www.w3.org/2000/svg">
<path d="M27 14.4586C27 14.1284 26.7324 13.8608 26.4022 13.8608H6.6147V11.4144H8.49353V12.5306C8.49353 12.8607 8.76117 13.1284 9.09134 13.1284C9.4215 13.1284 9.68915 12.8607 9.68915 12.5306V10.8166C9.68915 10.4864 9.4215 10.2188 9.09134 10.2188H6.01689C5.68673 10.2188 5.41908 10.4864 5.41908 10.8166V13.8608H3.59781C3.26765 13.8608 3 14.1284 3 14.4586C3 18.2118 5.25588 21.4476 8.48268 22.8826L8.29864 22.9595C7.99401 23.0868 7.85028 23.437 7.97762 23.7416C8.07352 23.9709 8.29557 24.109 8.5294 24.109C8.60626 24.109 8.6844 24.0941 8.75972 24.0626L10.2158 23.4539C10.8596 23.5969 11.5282 23.6729 12.2144 23.6729H17.7857C18.5987 23.6729 19.3872 23.5665 20.1387 23.3679L21.8005 24.0626C21.8758 24.0942 21.954 24.109 22.0308 24.109C22.2647 24.109 22.4868 23.9708 22.5826 23.7416C22.7099 23.437 22.5662 23.0868 22.2616 22.9595L21.7834 22.7596C24.8676 21.2683 27 18.1078 27 14.4586ZM17.7857 22.4773H12.2144C7.99393 22.4773 4.5245 19.1998 4.21774 15.0563H25.7824C25.4756 19.1999 22.0062 22.4773 17.7857 22.4773Z" fill="#6B6B6B"/>
<path d="M13.4999 11.6994C13.4999 11.6994 15.3312 10.1592 14.9999 8.99941C14.7723 8.20286 13.6361 8.31657 13.4999 7.49941C13.3342 6.5053 14.9999 5.39941 14.9999 5.39941" stroke="#6B6B6B"/>
<path d="M16.8119 11.6994C16.8119 11.6994 18.6433 10.1592 18.3119 8.99941C18.0843 8.20286 16.9481 8.31657 16.8119 7.49941C16.6462 6.5053 18.3119 5.39941 18.3119 5.39941" stroke="#6B6B6B"/>
<path d="M20.4117 11.6994C20.4117 11.6994 22.2431 10.1592 21.9117 8.99941C21.6841 8.20286 20.5479 8.31657 20.4117 7.49941C20.246 6.5053 21.9117 5.39941 21.9117 5.39941" stroke="#6B6B6B"/>
</svg>
