<svg width="20" height="20" viewBox="0 0 20 20" fill="none" xmlns="http://www.w3.org/2000/svg">
<path d="M15.0512 5.23057C16.4933 5.23057 17.6665 4.05737 17.6665 2.61529C17.6665 1.1732 16.4933 0 15.0512 0C13.6092 0 12.436 1.1732 12.436 2.61529C12.436 4.05737 13.6091 5.23057 15.0512 5.23057ZM15.0512 1.13259C15.8687 1.13259 16.5339 1.79778 16.5339 2.61529C16.5339 3.4328 15.8687 4.09798 15.0512 4.09798C14.2337 4.09798 13.5686 3.4328 13.5686 2.61529C13.5686 1.79778 14.2337 1.13259 15.0512 1.13259Z" fill="#6B6B6B"/>
<path d="M18.0762 13.0848C17.159 15.2289 15.0903 16.7343 12.652 16.8854L13.6418 15.8955C13.863 15.6743 13.863 15.3158 13.6418 15.0947C13.4206 14.8736 13.0621 14.8736 12.8409 15.0947L10.8717 17.064C10.6506 17.2852 10.6506 17.6437 10.8717 17.8648L12.8409 19.8341C12.9515 19.9446 13.0964 19.9999 13.2414 19.9999C13.3864 19.9999 13.5312 19.9446 13.6419 19.8341C13.863 19.6129 13.863 19.2543 13.6419 19.0332L12.63 18.0213C16.2152 17.8438 19.4325 15.1493 19.6822 11.6297C19.7374 10.8525 19.6967 8.51304 19.6967 8.51304C19.6967 7.39654 19.0039 6.40927 17.9447 6.05627C17.9404 6.05486 17.2088 5.83035 17.2088 5.83035C16.9207 5.74173 16.6139 5.89472 16.5106 6.17775L15.5658 8.77008C15.5658 8.77008 15.3269 7.29035 15.3071 7.25769C15.3083 7.25573 15.3098 7.25405 15.3109 7.2521L15.8128 6.3828C15.8663 6.29001 15.8663 6.1758 15.8128 6.08301C15.7593 5.99021 15.6602 5.93311 15.5531 5.93311H14.5494C14.4423 5.93311 14.3432 5.99021 14.2897 6.08301C14.2362 6.1758 14.2362 6.29001 14.2897 6.3828L14.7916 7.2521C14.7927 7.25405 14.7941 7.2558 14.7953 7.25769C14.7755 7.29035 14.5367 8.77008 14.5367 8.77008L13.5919 6.17775C13.4887 5.89466 13.1817 5.74159 12.8937 5.83035C12.8937 5.83035 12.1621 6.05486 12.1578 6.05627C11.0986 6.40927 10.3871 7.39654 10.3871 8.51304V12.5186C10.3871 12.8313 10.6406 13.0848 10.9533 13.0848H18.0762ZM11.5196 11.9523V8.51304C11.5196 7.88691 11.9173 7.33297 12.51 7.13264L12.7118 7.07068L14.491 11.9522H11.5196V11.9523ZM18.5574 11.3364C18.5574 11.6914 18.0933 11.9523 17.7184 11.9523H15.6114L17.3906 7.07075L17.5925 7.1327C18.1852 7.33304 18.5574 7.88691 18.5574 8.51311C18.5574 8.51311 18.5574 10.5831 18.5574 11.3364Z" fill="#6B6B6B"/>
<path d="M4.68382 14.8078C5.67062 14.8078 6.47345 14.005 6.47345 13.0182C6.47345 12.0314 5.67062 11.2285 4.68382 11.2285C3.69708 11.2285 2.89419 12.0313 2.89419 13.0182C2.89426 14.0049 3.69708 14.8078 4.68382 14.8078ZM4.68382 12.3611C5.04611 12.3611 5.34092 12.6559 5.34092 13.0182C5.34092 13.3804 5.04611 13.6752 4.68382 13.6752C4.32153 13.6752 4.02678 13.3804 4.02678 13.0182C4.02678 12.6559 4.32153 12.3611 4.68382 12.3611Z" fill="#6B6B6B"/>
<path d="M7.64242 1.30985C7.4212 1.08877 7.06275 1.08877 6.84154 1.30985C6.6204 1.53106 6.6204 1.88958 6.84154 2.11073L7.85319 3.12231C3.93535 3.31133 0.803764 6.46224 0.768814 10.6921L0.0758849 11.8923C0.000800773 12.0223 -0.0195359 12.1769 0.0193193 12.322C0.0581745 12.467 0.153057 12.5907 0.283158 12.6658L0.893124 13.018L0.283158 13.3702C0.153124 13.4453 0.0581745 13.569 0.0193193 13.714C-0.0196033 13.8591 0.000800773 14.0137 0.0758849 14.1437L1.40498 16.4457C1.56134 16.7167 1.9076 16.8092 2.17851 16.653L2.78848 16.3008V17.0051C2.78848 17.3179 3.04201 17.5714 3.35474 17.5714H6.01285C6.32558 17.5714 6.57912 17.3179 6.57912 17.0051V16.3008L7.18908 16.653C7.31912 16.7281 7.47373 16.7484 7.61878 16.7096C7.76383 16.6707 7.88753 16.5758 7.96262 16.4457L9.29164 14.1437C9.44801 13.8729 9.35521 13.5266 9.08437 13.3702L8.47433 13.018L9.08437 12.6658C9.35521 12.5094 9.44801 12.1631 9.29164 11.8923L7.96262 9.59026C7.88753 9.46022 7.76383 9.36527 7.61878 9.32642C7.47373 9.28736 7.31912 9.3079 7.18908 9.38298L6.57912 9.73517V9.0308C6.57912 8.71807 6.32558 8.46453 6.01285 8.46453H3.35481C3.04208 8.46453 2.78854 8.71807 2.78854 9.0308V9.73517L2.17858 9.38298C2.12929 9.35457 2.0775 9.33457 2.02477 9.32224C2.58134 6.55591 4.94794 4.43719 7.83144 4.25854L6.84154 5.24837C6.6204 5.46952 6.6204 5.8281 6.84154 6.04925C6.95211 6.15975 7.09703 6.21511 7.24201 6.21511C7.387 6.21511 7.53184 6.15982 7.64248 6.04925L9.61178 4.07995C9.71797 3.97369 9.77763 3.82965 9.77763 3.67948C9.77763 3.52925 9.71797 3.38527 9.61178 3.27901L7.64242 1.30985ZM3.07164 11.2064C3.24693 11.3075 3.46262 11.3075 3.6379 11.2064C3.81312 11.1053 3.92107 10.9183 3.92107 10.716V9.59699H5.44666V10.716C5.44666 10.9183 5.55461 11.1052 5.72982 11.2064C5.90511 11.3075 6.12093 11.3075 6.29609 11.2064L7.26511 10.647L8.02787 11.9681L7.05885 12.5276C6.88363 12.6287 6.77568 12.8156 6.77568 13.018C6.77568 13.2204 6.88363 13.4072 7.05885 13.5084L8.02787 14.0679L7.26511 15.389L6.29609 14.8296C6.1208 14.7285 5.90498 14.7285 5.72982 14.8296C5.55461 14.9307 5.44666 15.1177 5.44666 15.32V16.4389H3.92107V15.32C3.92107 15.1177 3.81312 14.9308 3.6379 14.8296C3.46262 14.7285 3.24693 14.7285 3.07164 14.8296L2.10262 15.389L1.33979 14.0679L2.30881 13.5084C2.48403 13.4073 2.59198 13.2204 2.59198 13.018C2.59198 12.8156 2.48403 12.6288 2.30881 12.5276L1.33979 11.9681L2.10262 10.647L3.07164 11.2064Z" fill="#6B6B6B"/>
</svg>
