<svg width="24" height="24" viewBox="0 0 24 24" fill="none" xmlns="http://www.w3.org/2000/svg">
<path d="M7.25708 18.6023H7.6641V17.1445H10.1869V18.6023H10.5946V17.1445H13.2365V18.6023H13.6449V17.1445H16.4557V18.6023H16.8627V17.1445H19.2002V16.7382H16.8627V14.097H19.2002V13.6893H16.8627V11.2821H19.2002V10.8758H16.8627V9.24976H16.4557V10.8758H13.6449V9.24976H13.2365V10.8758H10.5946V9.24976H10.1869V10.8758H7.66341V9.24976H7.25708V10.8758H4.56323V11.2821H7.25708V13.6893H4.56323V14.097H7.25708V16.7382H4.56323V17.1445H7.25708V18.6023ZM10.5939 16.7382V14.097H13.2358V16.7382H10.5939ZM16.4557 16.7382H13.6449V14.097H16.4557V16.7382ZM16.4557 11.2821V13.6893H13.6449V11.2821C13.6449 11.2828 16.4557 11.2828 16.4557 11.2821ZM13.2365 11.2821V13.6893H10.5946V11.2821C10.5946 11.2828 13.2365 11.2828 13.2365 11.2821ZM7.66341 11.2821H10.1862V13.6893H7.66341V11.2821ZM7.66341 14.097H10.1862V16.7382H7.66341V14.097Z" fill="#6B6B6B"/>
<path d="M21.9795 3.33728L19.155 3.34002L18.7425 3.34138V5.01597C18.7425 5.46267 18.3772 5.82796 17.9298 5.82796H16.9803C16.5316 5.82796 16.1677 5.46335 16.1677 5.01597V3.34412L15.0848 3.34549V5.01597C15.0848 5.46267 14.7188 5.82796 14.2701 5.82796H13.3206C12.8725 5.82796 12.5079 5.46335 12.5079 5.01597V3.34617L11.3573 3.34891V5.01666C11.3573 5.46335 10.992 5.82864 10.544 5.82864H9.5938C9.14711 5.82864 8.78113 5.46404 8.78113 5.01666V3.35165H7.59633V5.01666C7.59633 5.46335 7.23173 5.82864 6.78366 5.82864H5.83418C5.38544 5.82864 5.02083 5.46404 5.02083 5.01666V3.35507L2 3.3578V21.2481H3.4297H20.5724L22 21.244L21.9795 3.33728ZM20.5724 19.8246H3.4297V8.39457H20.5724V19.8246Z" fill="#6B6B6B"/>
<path d="M5.83422 5.25204H6.7837C6.89521 5.25204 6.98619 5.16106 6.98619 5.04888V2.20317C6.98619 2.0903 6.89521 2 6.7837 2H5.83422C5.72135 2 5.63037 2.0903 5.63037 2.20317V5.04888C5.63037 5.16106 5.72135 5.25204 5.83422 5.25204Z" fill="#6B6B6B"/>
<path d="M9.59379 5.25204H10.544C10.6561 5.25204 10.7471 5.16106 10.7471 5.04888V2.20317C10.7464 2.0903 10.6555 2 10.5433 2H9.59311C9.48161 2 9.39062 2.0903 9.39062 2.20317V5.04888C9.39131 5.16106 9.48229 5.25204 9.59379 5.25204Z" fill="#6B6B6B"/>
<path d="M13.3206 5.25204H14.2701C14.3836 5.25204 14.4746 5.16106 14.4746 5.04888V2.20317C14.4739 2.0903 14.3836 2 14.2701 2H13.3206C13.2084 2 13.1174 2.0903 13.1174 2.20317V5.04888C13.1174 5.16106 13.2084 5.25204 13.3206 5.25204Z" fill="#6B6B6B"/>
<path d="M16.9803 5.25204H17.9297C18.0419 5.25204 18.1322 5.16106 18.1322 5.04888V2.20317C18.1322 2.0903 18.0419 2 17.9297 2H16.9803C16.8681 2 16.7771 2.0903 16.7771 2.20317V5.04888C16.7778 5.16106 16.8681 5.25204 16.9803 5.25204Z" fill="#6B6B6B"/>
</svg>
