<svg width="30" height="30" viewBox="0 0 30 30" fill="none" xmlns="http://www.w3.org/2000/svg">
<path d="M26.2201 12.8456L27.5991 12.6791C28.2839 12.5963 28.8003 12.0138 28.8003 11.3241C28.8003 10.5715 28.1881 9.95923 27.4354 9.95923H26.4749C25.8879 9.95923 25.3864 10.3317 25.194 10.8526L23.8506 7.91192C23.3522 6.82002 22.3561 6.00797 21.1861 5.73977C19.2059 5.28599 11.3948 5.28593 9.41442 5.73977C8.24445 6.00803 7.24841 6.82002 6.75 7.9118L5.40648 10.8525C5.21407 10.3316 4.71261 9.95928 4.12573 9.95928H3.16515C2.41253 9.95923 1.80029 10.5715 1.80029 11.3241C1.80029 12.0138 2.31667 12.5963 3.00148 12.6791L4.38039 12.8456L3.0616 14.1645C2.4205 14.8055 2.11381 15.7241 2.24111 16.6217L2.6922 19.8022C2.80814 20.6196 3.23193 21.3325 3.83452 21.8307V23.2752C3.83452 24.1343 4.5335 24.8333 5.39266 24.8333H7.97648C8.83563 24.8333 9.53461 24.1343 9.53461 23.2752V22.5737H21.0662V23.2753C21.0662 24.1344 21.7652 24.8334 22.6243 24.8334H25.2075C26.0667 24.8334 26.7657 24.1344 26.7657 23.2753V21.8309C27.3684 21.3327 27.7923 20.6197 27.9082 19.8022L28.3593 16.6217C28.4866 15.7241 28.1799 14.8055 27.5389 14.1644L26.2201 12.8456ZM24.716 21.5411H5.88453C4.84088 21.5411 3.93819 20.7913 3.73562 19.778H26.8649C26.6623 20.7912 25.7596 21.5411 24.716 21.5411ZM21.3832 17.0653L21.908 18.7453H21.1929L20.668 17.0653H21.3832ZM19.5862 17.0653L20.111 18.7453H10.4893L11.0142 17.0653H19.5862ZM9.40748 18.7453H8.69255L9.21742 17.0653H9.93234L9.40748 18.7453ZM7.6107 18.7453H3.58526L3.34695 17.0653H8.1355L7.6107 18.7453ZM22.9898 18.7453L22.465 17.0653H27.2535L27.0152 18.7453H22.9898ZM26.1426 11.3241C26.1426 11.1409 26.2917 10.9919 26.4749 10.9919H27.4354C27.6186 10.9919 27.7677 11.1409 27.7677 11.3241C27.7677 11.492 27.642 11.6338 27.4753 11.6539L26.1427 11.8148V11.3241H26.1426ZM9.6451 6.74625C11.4421 6.33446 19.1585 6.33446 20.9554 6.74625C21.3987 6.8479 21.8074 7.05655 22.1501 7.34431C19.69 6.91807 10.908 6.91812 8.45034 7.34443C8.793 7.05661 9.20176 6.8479 9.6451 6.74625ZM7.51317 8.72621C7.83243 8.56454 8.17801 8.44722 8.54299 8.37706C10.7531 7.9507 19.8472 7.95064 22.0583 8.37712C22.4228 8.44717 22.7681 8.56443 23.0872 8.72592L24.6832 12.2191H5.91752L7.51317 8.72621ZM2.83293 11.3241C2.83293 11.1409 2.98197 10.9919 3.16515 10.9919H4.12573C4.30891 10.9919 4.45795 11.1409 4.45795 11.3241V11.8149L3.12539 11.6539C2.95862 11.6338 2.83293 11.4919 2.83293 11.3241ZM5.43465 13.2517H25.1659L26.8088 14.8946C27.1157 15.2015 27.3033 15.6073 27.3458 16.0327H3.25476C3.29727 15.6073 3.48486 15.2015 3.79173 14.8946L5.43465 13.2517ZM8.50203 23.2753C8.50203 23.565 8.2663 23.8008 7.97654 23.8008H5.39271C5.10294 23.8008 4.86722 23.565 4.86722 23.2753V22.4068C5.18871 22.515 5.53114 22.5737 5.88459 22.5737H8.50203V23.2753ZM25.7331 23.2753C25.7331 23.565 25.4974 23.8008 25.2076 23.8008H22.6245C22.3347 23.8008 22.099 23.565 22.099 23.2753V22.5737H24.7161C25.0694 22.5737 25.4118 22.5151 25.7332 22.4069V23.2753H25.7331Z" fill="#6B6B6B"/>
</svg>
