<svg width="30" height="30" viewBox="0 0 30 30" fill="none" xmlns="http://www.w3.org/2000/svg">
<path d="M26.6771 23.7854C20.93 25.7007 17.8844 24.9311 14.6605 24.1167C11.6137 23.3471 8.46246 22.5536 2.98946 23.7676C2.82759 23.8035 2.68662 23.9023 2.59757 24.0421C2.50852 24.182 2.47868 24.3515 2.51462 24.5134C2.55056 24.6753 2.64932 24.8162 2.7892 24.9053C2.92907 24.9943 3.09859 25.0242 3.26046 24.9882C8.44659 23.8353 11.4495 24.5945 14.3542 25.3289C16.243 25.8857 18.1967 26.1923 20.1653 26.2407C22.5216 26.1969 24.8548 25.7679 27.0726 24.9707C27.2257 24.9151 27.3509 24.8019 27.4218 24.6552C27.4926 24.5086 27.5034 24.34 27.4519 24.1855C27.4003 24.0311 27.2905 23.9028 27.1458 23.828C27.0011 23.7533 26.8329 23.738 26.6771 23.7854Z" fill="#6B6B6B"/>
<path d="M3.26059 21.2382C8.44671 20.0864 11.4496 20.8444 14.3543 21.5787C16.2431 22.1356 18.1969 22.4422 20.1655 22.4906C22.5218 22.4467 24.855 22.0177 27.0728 21.2205C27.2258 21.1648 27.3511 21.0516 27.422 20.905C27.4928 20.7583 27.5036 20.5898 27.4521 20.4353C27.4005 20.2808 27.2907 20.1525 27.146 20.0778C27.0013 20.0031 26.8331 19.9878 26.6773 20.0352C24.5349 20.8064 22.2768 21.2068 20 21.2194V6.25293C20 5.92141 20.1317 5.60347 20.3661 5.36905C20.6005 5.13463 20.9184 5.00293 21.25 5.00293C21.5815 5.00293 21.8994 5.13463 22.1338 5.36905C22.3683 5.60347 22.5 5.92141 22.5 6.25293C22.5 6.41869 22.5658 6.57766 22.683 6.69487C22.8002 6.81208 22.9592 6.87793 23.125 6.87793C23.2907 6.87793 23.4497 6.81208 23.5669 6.69487C23.6841 6.57766 23.75 6.41869 23.75 6.25293C23.75 5.58989 23.4866 4.954 23.0177 4.48516C22.5489 4.01632 21.913 3.75293 21.25 3.75293C20.5869 3.75293 19.951 4.01632 19.4822 4.48516C19.0134 4.954 18.75 5.58989 18.75 6.25293V8.75293H9.99996V6.25293C9.99996 5.92141 10.1317 5.60347 10.3661 5.36905C10.6005 5.13463 10.9184 5.00293 11.25 5.00293C11.5815 5.00293 11.8994 5.13463 12.1338 5.36905C12.3683 5.60347 12.5 5.92141 12.5 6.25293C12.5 6.41869 12.5658 6.57766 12.683 6.69487C12.8002 6.81208 12.9592 6.87793 13.125 6.87793C13.2907 6.87793 13.4497 6.81208 13.5669 6.69487C13.6841 6.57766 13.75 6.41869 13.75 6.25293C13.75 5.58989 13.4866 4.954 13.0177 4.48516C12.5489 4.01632 11.913 3.75293 11.25 3.75293C10.5869 3.75293 9.95104 4.01632 9.4822 4.48516C9.01335 4.954 8.74996 5.58989 8.74996 6.25293V19.4092C6.812 19.372 4.87695 19.5763 2.98946 20.0173C2.82759 20.0532 2.68662 20.152 2.59757 20.2919C2.50852 20.4318 2.47868 20.6013 2.51462 20.7631C2.55055 20.925 2.64932 21.066 2.7892 21.155C2.92907 21.2441 3.09859 21.2739 3.26046 21.238L3.26059 21.2382ZM9.99996 13.7529H18.75V16.2529H9.99996V13.7529ZM18.75 10.0029V12.5029H9.99996V10.0029H18.75ZM9.99996 17.5029H18.75V21.1529C17.3682 20.9993 16.0008 20.7363 14.6606 20.3664C13.1337 19.9444 11.575 19.6472 9.99996 19.4776V17.5029Z" fill="#6B6B6B"/>
</svg>
