<svg width="24" height="24" viewBox="0 0 24 24" fill="none" xmlns="http://www.w3.org/2000/svg">
<path d="M12.0002 16.1938C14.3125 16.1938 16.1938 14.3126 16.1938 12.0002C16.1938 9.68792 14.3126 7.80664 12.0002 7.80664C9.68792 7.80664 7.80664 9.68792 7.80664 12.0002C7.80664 14.3126 9.68798 16.1938 12.0002 16.1938ZM12.0002 8.45182C13.9567 8.45182 15.5487 10.0438 15.5487 12.0002C15.5487 13.9567 13.9567 15.5487 12.0002 15.5487C10.0438 15.5487 8.45182 13.9567 8.45182 12.0002C8.45182 10.0438 10.0438 8.45182 12.0002 8.45182Z" fill="#6B6B6B"/>
<path d="M11.9999 2C10.3115 2 8.69829 2.41614 7.26893 3.18454L5.65212 2.46451L5.38989 3.05387L6.58439 3.58578C6.22183 3.81997 5.87438 4.07935 5.54278 4.3613L3.80824 3.99291L3.67404 4.62387L4.96311 4.89775C4.65861 5.20097 4.37118 5.52518 4.10244 5.87101H2.32244V6.51618H3.99344L4.26408 7.86975L4.89665 7.743L4.6034 6.27685C4.8573 5.94877 5.12982 5.6417 5.41827 5.35461L5.61215 6.4775L6.24798 6.36749L5.98284 4.83299C6.31349 4.55362 6.66223 4.30107 7.02512 4.07231L7.16318 5.26261L7.80382 5.18843L7.63352 3.721C8.95632 3.02291 10.4441 2.64518 11.9999 2.64518C17.1584 2.64518 21.3548 6.84169 21.3548 12.0001C21.3548 17.1585 17.1583 21.355 11.9999 21.355C8.70635 21.355 5.68985 19.6369 3.99731 16.8388H5.87086V16.1936H3.07763L2.026 18.6472L2.61888 18.9014L3.39663 17.0868C5.19533 20.1275 8.44602 22.0001 11.9999 22.0001C17.5138 22.0001 22 17.514 22 12.0001C22 6.48618 17.5138 2 11.9999 2Z" fill="#6B6B6B"/>
<path d="M12.6453 13.6131H11.3549C10.9991 13.6131 10.7098 13.3237 10.7098 12.9679H10.0646C10.0646 13.6795 10.6433 14.2582 11.3549 14.2582H11.6775V14.9034H12.3227V14.2582H12.6453C13.3569 14.2582 13.9356 13.6795 13.9356 12.9679C13.9356 12.2562 13.3569 11.6775 12.6453 11.6775H11.3549C10.9991 11.6775 10.7098 11.3882 10.7098 11.0323C10.7098 10.6766 10.9991 10.3872 11.3549 10.3872H12.6453C13.0011 10.3872 13.2905 10.6765 13.2905 11.0323H13.9356C13.9356 10.3207 13.3569 9.74198 12.6453 9.74198H12.3227V9.0968H11.6775V9.74198H11.3549C10.6433 9.74198 10.0646 10.3207 10.0646 11.0323C10.0646 11.744 10.6433 12.3227 11.3549 12.3227H12.6453C13.0011 12.3227 13.2905 12.612 13.2905 12.9679C13.2905 13.3237 13.0011 13.6131 12.6453 13.6131Z" fill="#6B6B6B"/>
<path d="M3.29044 12.3228V12.968H5.76758L5.31594 13.6131H2.64526V14.2583H4.8643L4.31627 15.0412L4.845 15.4109L5.63243 14.286C6.58693 16.9586 9.1144 18.7744 12.0002 18.7744C15.7357 18.7744 18.7745 15.7357 18.7745 12.0002C18.7745 8.26467 15.7357 5.22595 12.0002 5.22595C9.1144 5.22595 6.58693 7.04179 5.63277 9.71436L4.84527 8.5895L4.31654 8.95917L4.8643 9.74207H3.29044V10.3872H5.31594L5.76758 11.0324H3.93555V11.6776H6.21915L6.44494 12.0002L6.21915 12.3228H3.29044ZM6.09945 10.3815C6.82721 7.71982 9.23112 5.87113 12.0002 5.87113C15.3798 5.87113 18.1292 8.62052 18.1292 12.0002C18.1292 15.3799 15.3798 18.1293 12.0002 18.1293C9.23112 18.1293 6.82721 16.2806 6.09945 13.6189L7.23271 12.0002L6.09945 10.3815Z" fill="#6B6B6B"/>
<path d="M2.64518 9.74207H2V10.3872H2.64518V9.74207Z" fill="#6B6B6B"/>
<path d="M3.29044 11.0322H2.64526V11.6774H3.29044V11.0322Z" fill="#6B6B6B"/>
<path d="M2.64518 12.3226H2V12.9678H2.64518V12.3226Z" fill="#6B6B6B"/>
</svg>

