<svg width="30" height="30" viewBox="0 0 30 30" fill="none" xmlns="http://www.w3.org/2000/svg">
<path d="M23.7155 14.341C23.3019 14.6228 22.9263 14.9568 22.598 15.3347C22.5797 15.3005 22.5624 15.2644 22.5422 15.2325C22.4624 15.0961 22.3637 14.9716 22.2492 14.8627C22.0224 14.6457 21.7439 14.5402 21.4739 14.4952C21.7261 14.6143 21.9525 14.7886 22.0941 15.0188C22.1663 15.1341 22.2192 15.2583 22.26 15.3905C22.2886 15.4843 22.3092 15.5747 22.3285 15.6708C22.0418 16.0524 21.8081 16.4711 21.6338 16.9153C21.4189 17.4519 21.3065 18.0239 21.3024 18.6019C21.4767 18.0624 21.6764 17.5524 21.9281 17.078C22.176 16.6096 22.4713 16.168 22.8094 15.7599C23.4769 14.9475 24.278 14.2739 25.1546 13.6678C24.6436 13.7935 24.1631 14.0391 23.7155 14.341Z" fill="#B6B6B6"/>
<path d="M28.087 23.4497C28.6697 23.0616 29.0625 22.3693 29.0625 21.5729C29.0657 20.9732 28.8334 20.3962 28.4156 19.966C28.4222 19.9055 28.4315 19.8455 28.4315 19.7827V14.3255C28.4315 13.4457 27.8522 12.7163 27.0853 12.5405L27.1814 12.4533L27.0145 12.4866C26.8017 12.0624 26.3742 11.7704 25.8764 11.7704H5.73372V6.02911C5.73372 5.97802 5.74403 4.96458 6.3745 4.61958C6.22122 4.90458 5.8781 5.56364 5.82982 5.85145C5.71685 6.53723 6.09372 8.6213 6.09372 8.6213C6.24982 9.23442 7.71653 9.32114 9.37216 8.81208C11.0273 8.30489 12.2428 7.39599 12.0876 6.78192C12.0762 6.73909 12.0581 6.69829 12.0342 6.66098C11.8256 6.19411 11.0395 4.4813 10.5529 4.0088C10.3392 3.8002 9.49732 3.46833 9.49732 3.46833L8.81903 1.20567C8.73841 0.890672 7.98466 0.84661 7.13482 1.1077C6.2845 1.3688 5.66013 1.83661 5.73982 2.14973L6.31357 4.0313C5.46325 4.35005 5.21763 5.41786 5.21763 6.02911V11.7704H4.12356C3.61028 11.7704 3.16966 12.0802 2.96388 12.526C2.17263 12.6802 1.56888 13.4265 1.56888 14.3255V19.7832C1.56888 19.846 1.57872 19.9055 1.58435 19.9665C1.16656 20.3969 0.934298 20.974 0.937471 21.5738C0.937471 22.3688 1.33075 23.0621 1.91341 23.4497C1.33075 23.8379 0.937471 24.5307 0.937471 25.3271C0.937471 26.544 1.84731 27.5335 2.96622 27.5335H3.88075V29.0625H5.56919V27.5335H24.4312V29.0625H26.1197V27.5335H27.0347C28.1531 27.5335 29.0625 26.544 29.0625 25.3271C29.0625 24.5307 28.6697 23.8379 28.087 23.4497ZM8.81997 6.58973C9.68903 6.32208 10.5056 6.2213 11.1093 6.27239C10.6204 6.68255 9.83903 7.08661 8.92122 7.36833C8.05169 7.63552 7.2356 7.7377 6.63278 7.6852C7.12169 7.27645 7.9031 6.87145 8.81997 6.58973ZM26.7351 13.3721C27.1973 13.3721 27.5728 13.8 27.5728 14.3255V19.455C27.3987 19.3994 27.2174 19.3695 27.0347 19.3665H27.0211C26.6475 18.9802 26.2312 18.2569 25.8984 16.9107V14.326C25.8984 13.8 26.2739 13.3721 26.7351 13.3721ZM25.8764 12.6493C25.9214 12.6493 25.9636 12.66 26.0034 12.6736C25.8914 12.6919 25.7929 12.7065 25.7217 12.7144C24.9698 12.7983 23.624 12.9225 22.6087 12.9225C22.3195 12.9225 22.057 12.9127 21.8428 12.8883C21.644 12.8663 21.217 12.7425 20.9118 12.6488H25.8764V12.6493ZM25.0397 19.013V19.2657C24.6567 19.1715 24.2615 19.0829 24.0272 19.0557C23.7442 19.0267 23.4598 19.0139 23.1754 19.0172C22.7817 19.0172 22.3415 19.0327 21.9154 19.0482C21.5081 19.0622 21.0862 19.0777 20.7286 19.0777C20.4703 19.0777 20.2692 19.0697 20.1117 19.0543C20.0865 19.0514 20.0613 19.0483 20.0362 19.0449C20.0986 18.9811 20.1511 18.9169 20.1928 18.8527C20.827 17.8618 21.0122 15.9783 21.1598 13.9716C21.1743 13.7705 21.1879 13.5844 21.2015 13.419C21.4195 13.478 21.6304 13.5277 21.7739 13.5436C21.9989 13.569 22.2797 13.5816 22.6097 13.5816C23.5031 13.5816 24.5887 13.4911 25.2661 13.4241C25.1524 13.6368 25.0806 13.8692 25.0547 14.109C24.7237 15.2785 24.8437 17.1891 25.0397 19.013ZM4.12356 12.6493H20.5706C20.5743 12.8175 20.58 13.1363 20.5678 13.2661C20.4529 14.5904 20.3498 17.4038 19.6537 18.4913C19.4873 18.7505 18.8325 19.1025 18.5039 19.2675C9.3131 17.2829 6.00606 15.195 4.96122 14.325C4.96075 13.5957 4.56091 12.9699 3.98903 12.675C4.03212 12.659 4.07759 12.6503 4.12356 12.6493ZM2.4281 14.3255C2.4281 13.8 2.80357 13.3721 3.26482 13.3721C3.727 13.3721 4.10247 13.8 4.10247 14.3255V19.366H3.54888C3.17482 18.9797 2.75997 18.2541 2.42763 16.9102V14.3255H2.4281ZM1.66919 22.0974C3.43685 20.9663 9.12982 20.3494 13.8117 20.0255H27.0347C27.6328 20.0255 28.1386 20.4549 28.3317 21.0502C26.5636 22.1808 20.8748 22.7972 16.1934 23.1207H2.96622C2.3681 23.1202 1.86185 22.6918 1.66919 22.0974ZM16.1934 26.8744H2.96622C2.3681 26.8744 1.86231 26.446 1.66872 25.8507C3.43685 24.72 9.12935 24.1032 13.8112 23.7793H27.0342C27.6323 23.7793 28.1381 24.2082 28.3312 24.8044C26.5631 25.9341 20.8743 26.5505 16.1934 26.8744Z" fill="#B6B6B6"/>
</svg>
