<svg width="30" height="30" viewBox="0 0 30 30" fill="none" xmlns="http://www.w3.org/2000/svg">
<path d="M3 24.8746V11.1246C3 9.74392 4.11929 8.62463 5.5 8.62463H25.5C26.8807 8.62463 28 9.74392 28 11.1246V24.8746C28 26.2554 26.8807 27.3746 25.5 27.3746H5.5C4.11929 27.3746 3 26.2554 3 24.8746Z" stroke="#6B6B6B" stroke-width="1.5"/>
<path d="M5.89978 22.7156V13.0356C5.89978 12.0636 6.75939 11.2756 7.81978 11.2756H23.1798C24.2402 11.2756 25.0998 12.0636 25.0998 13.0356V22.7156C25.0998 23.6877 24.2402 24.4756 23.1798 24.4756H7.81978C6.75939 24.4756 5.89978 23.6877 5.89978 22.7156Z" stroke="#6B6B6B" stroke-width="1.5"/>
<path d="M11.1244 3L15.4994 7.375L19.8744 3" stroke="#6B6B6B" stroke-width="1.5" stroke-linecap="round" stroke-linejoin="round"/>
</svg>
