<svg width="30" height="30" viewBox="0 0 30 30" fill="none" xmlns="http://www.w3.org/2000/svg">
<path d="M17.0879 21.5037C16.2122 20.628 14.7872 20.628 13.9115 21.5037C13.0357 22.3795 13.0357 23.8045 13.9115 24.6802C14.3493 25.1182 14.9245 25.3371 15.4997 25.3371C16.0748 25.3371 16.6501 25.1182 17.0879 24.6802C17.9637 23.8045 17.9637 22.3795 17.0879 21.5037Z" fill="#6B6B6B"/>
<path d="M9.94141 17.5329L11.5296 19.1211C13.719 16.9318 17.2813 16.9318 19.4708 19.1211L21.059 17.5329C17.9939 14.4679 13.0065 14.4679 9.94141 17.5329Z" fill="#6B6B6B"/>
<path d="M15.4994 9.61621C11.8996 9.61621 8.51535 11.018 5.96997 13.5634L7.55817 15.1516C9.67931 13.0305 12.4996 11.8623 15.4993 11.8623C18.4991 11.8623 21.3194 13.0305 23.4405 15.1516L25.0287 13.5634C22.4834 11.018 19.0991 9.61621 15.4994 9.61621Z" fill="#6B6B6B"/>
<path d="M15.5 4C10.4004 4 5.60598 5.98592 2 9.5919L3.5882 11.1801C6.76998 7.99837 11.0004 6.24612 15.5 6.24612C19.9996 6.24612 24.23 7.99837 27.4118 11.1802L29 9.5919C25.394 5.98592 20.5996 4 15.5 4Z" fill="#6B6B6B"/>
</svg>
