<?xml version="1.0" encoding="UTF-8"?>
<svg width="67px" height="89px" viewBox="0 0 67 89" version="1.1" xmlns="http://www.w3.org/2000/svg" xmlns:xlink="http://www.w3.org/1999/xlink">
    <title>Path 3</title>
    <g id="Page-1" stroke="none" stroke-width="1" fill="none" fill-rule="evenodd">
        <g id="Artboard" transform="translate(-59.000000, -190.000000)">
            <g id="Path-3" transform="translate(59.000000, 190.000000)">
                <path d="M67,33.4615949 C67,48.6935918 46.5859375,75.8114261 37.6351562,87.0001469 C35.4890625,89.6666177 31.5109375,89.6666177 29.3648438,87.0001469 C20.2570312,75.8114261 0,48.6935918 0,33.4615949 C0,14.9810349 14.9982292,0 33.5,0 C51.9947917,0 67,14.9810349 67,33.4615949 L67,33.4615949 Z" id="Path" fill="#23D3D3" fill-rule="nonzero"></path>
                <g id="Group-3" transform="translate(19.881323, 20.000000)" fill="#FFFFFF">
                    <path d="M-4.89043398,14.3733112 C-4.89043398,17.6548343 -2.23023391,20.3150344 1.05128917,20.3150344 C5.33418159,20.3150344 9.61707401,20.3150344 13.8999664,20.3150344 C22.0988939,20.3150344 28.3790649,20.3150344 32.7404793,20.3150344 C32.7404793,17.0335113 30.0802792,14.3733112 26.7987562,14.3733112 C22.4991596,14.3733112 18.199563,14.3733112 13.8999664,14.3733112 C7.58763467,14.3733112 1.32416787,14.3733112 -4.89043398,14.3733112 Z" id="Path-2-Copy" transform="translate(13.925023, 17.344173) rotate(-52.000000) translate(-13.925023, -17.344173) "></path>
                    <circle id="Oval" cx="5.61867744" cy="5.5" r="5.5"></circle>
                    <circle id="Oval" cx="22.6186774" cy="28.5" r="5.5"></circle>
                </g>
            </g>
        </g>
    </g>
</svg>